<svg width="96" height="96" xmlns="http://www.w3.org/2000/svg" xmlns:xlink="http://www.w3.org/1999/xlink" xml:space="preserve" overflow="hidden"><g transform="translate(-166 -265)"><path d="M225.3 302.3C221.1 302.3 217.8 298.9 217.8 294.8 217.8 290.7 221.2 287.3 225.3 287.3 229.5 287.3 232.8 290.7 232.8 294.8 232.8 298.9 229.4 302.3 225.3 302.3ZM242.2 290.1C241.8 288.7 241.3 287.4 240.6 286.2L242.2 281.5 238.6 277.9 233.9 279.5C232.7 278.8 231.4 278.3 230 277.9L227.8 273.5 222.8 273.5 220.6 277.9C219.2 278.3 217.9 278.8 216.7 279.5L212 277.9 208.4 281.5 210 286.2C209.3 287.4 208.8 288.7 208.4 290.1L204 292.3 204 297.3 208.4 299.5C208.8 300.9 209.3 302.2 210 303.4L208.4 308.1 211.9 311.6 216.6 310C217.8 310.7 219.1 311.2 220.5 311.6L222.7 316 227.7 316 229.9 311.6C231.3 311.2 232.6 310.7 233.8 310L238.5 311.6 242.1 308.1 240.5 303.4C241.2 302.2 241.8 300.8 242.2 299.5L246.6 297.3 246.6 292.3 242.2 290.1Z"/><path d="M202.7 338.7C198.5 338.7 195.2 335.3 195.2 331.2 195.2 327 198.6 323.7 202.7 323.7 206.9 323.7 210.2 327.1 210.2 331.2 210.2 335.3 206.9 338.7 202.7 338.7L202.7 338.7ZM218 322.6 219.6 317.9 216 314.3 211.3 315.9C210.1 315.2 208.7 314.7 207.4 314.3L205.2 309.9 200.2 309.9 198 314.3C196.6 314.7 195.3 315.2 194.1 315.9L189.4 314.3 185.9 317.8 187.4 322.5C186.7 323.7 186.2 325.1 185.8 326.4L181.4 328.6 181.4 333.6 185.8 335.8C186.2 337.2 186.7 338.5 187.4 339.7L185.9 344.4 189.4 347.9 194.1 346.4C195.3 347.1 196.6 347.6 198 348L200.2 352.4 205.2 352.4 207.4 348C208.8 347.6 210.1 347.1 211.3 346.4L216 348 219.5 344.4 218 339.8C218.7 338.6 219.2 337.3 219.6 335.9L224 333.7 224 328.7 219.6 326.5C219.2 325.1 218.7 323.8 218 322.6Z"/></g></svg>